<svg width="24" height="24" viewBox="0 0 24 24" fill="none" xmlns="http://www.w3.org/2000/svg">
<path fill-rule="evenodd" clip-rule="evenodd" d="M12 0C5.37231 0 0 5.37231 0 12C0 18.6277 5.37231 24 12 24C18.6277 24 24 18.6277 24 12C24 5.37231 18.6277 0 12 0ZM12.9231 4.61538C12.9231 4.37057 12.8258 4.13578 12.6527 3.96267C12.4796 3.78956 12.2448 3.69231 12 3.69231C11.7552 3.69231 11.5204 3.78956 11.3473 3.96267C11.1742 4.13578 11.0769 4.37057 11.0769 4.61538V12C11.0769 12.5095 11.4905 12.9231 12 12.9231H17.5385C17.7833 12.9231 18.0181 12.8258 18.1912 12.6527C18.3643 12.4796 18.4615 12.2448 18.4615 12C18.4615 11.7552 18.3643 11.5204 18.1912 11.3473C18.0181 11.1742 17.7833 11.0769 17.5385 11.0769H12.9231V4.61538Z" fill="#027EDD"/>
</svg>
