<svg width="24" height="22" viewBox="0 0 24 22" fill="none" xmlns="http://www.w3.org/2000/svg">
<path fill-rule="evenodd" clip-rule="evenodd" d="M7.71402 4.28568C7.71402 3.14905 8.16555 2.05897 8.96927 1.25525C9.77299 0.451526 10.8631 0 11.9997 0C13.1363 0 14.2264 0.451526 15.0301 1.25525C15.8339 2.05897 16.2854 3.14905 16.2854 4.28568C16.2854 5.42231 15.8339 6.51239 15.0301 7.31611C14.2264 8.11984 13.1363 8.57136 11.9997 8.57136C10.8631 8.57136 9.77299 8.11984 8.96927 7.31611C8.16555 6.51239 7.71402 5.42231 7.71402 4.28568ZM16.2854 7.71423C16.2854 6.80492 16.6466 5.93286 17.2896 5.28988C17.9326 4.6469 18.8046 4.28568 19.7139 4.28568C20.6232 4.28568 21.4953 4.6469 22.1383 5.28988C22.7813 5.93286 23.1425 6.80492 23.1425 7.71423C23.1425 8.62353 22.7813 9.4956 22.1383 10.1386C21.4953 10.7816 20.6232 11.1428 19.7139 11.1428C18.8046 11.1428 17.9326 10.7816 17.2896 10.1386C16.6466 9.4956 16.2854 8.62353 16.2854 7.71423ZM0.856934 7.71423C0.856934 6.80492 1.21815 5.93286 1.86113 5.28988C2.50411 4.6469 3.37617 4.28568 4.28548 4.28568C5.19479 4.28568 6.06685 4.6469 6.70983 5.28988C7.3528 5.93286 7.71402 6.80492 7.71402 7.71423C7.71402 8.62353 7.3528 9.4956 6.70983 10.1386C6.06685 10.7816 5.19479 11.1428 4.28548 11.1428C3.37617 11.1428 2.50411 10.7816 1.86113 10.1386C1.21815 9.4956 0.856934 8.62353 0.856934 7.71423ZM5.4969 13.8479C6.19398 12.7554 7.15526 11.8562 8.29187 11.2336C9.42848 10.6109 10.7037 10.2849 11.9997 10.2856C13.0852 10.2846 14.1587 10.5129 15.1498 10.9555C16.141 11.3981 17.0275 12.0451 17.7513 12.854C18.4752 13.663 19.02 14.6157 19.3501 15.6498C19.6802 16.6838 19.7883 17.776 19.6671 18.8547C19.6523 18.9887 19.606 19.1174 19.5322 19.2301C19.4583 19.3429 19.3589 19.4367 19.2419 19.5038C17.038 20.7684 14.5407 21.4321 11.9997 21.4284C9.36544 21.4284 6.89117 20.729 4.75747 19.5038C4.64055 19.4367 4.54111 19.3429 4.46724 19.2301C4.39337 19.1174 4.34715 18.9887 4.33233 18.8547C4.1404 17.1023 4.55115 15.3368 5.4969 13.849V13.8479Z" fill="#027EDD"/>
<path d="M4.09377 12.8616C2.96665 14.6015 2.44151 16.6631 2.59893 18.7301C1.91266 18.6261 1.23769 18.4577 0.582945 18.2273L0.451517 18.1816C0.334256 18.1399 0.231577 18.0652 0.155918 17.9664C0.0802588 17.8677 0.034865 17.7491 0.0252349 17.625L0.0138065 17.4867C-0.0323589 16.913 0.0375273 16.3358 0.219295 15.7896C0.401063 15.2435 0.690987 14.7395 1.07177 14.3079C1.45255 13.8762 1.91638 13.5257 2.43559 13.2772C2.9548 13.0287 3.51875 12.8874 4.09377 12.8616ZM21.4011 18.7301C21.5585 16.6631 21.0334 14.6015 19.9062 12.8616C20.4813 12.8874 21.0452 13.0287 21.5644 13.2772C22.0836 13.5257 22.5475 13.8762 22.9282 14.3079C23.309 14.7395 23.5989 15.2435 23.7807 15.7896C23.9625 16.3358 24.0324 16.913 23.9862 17.4867L23.9748 17.625C23.9649 17.7488 23.9194 17.8672 23.8438 17.9658C23.7681 18.0643 23.6656 18.1389 23.5485 18.1804L23.4171 18.2261C22.7691 18.4547 22.0959 18.625 21.4011 18.7301Z" fill="#027EDD"/>
</svg>
