<svg width="24" height="24" viewBox="0 0 24 24" fill="none" xmlns="http://www.w3.org/2000/svg">
<path fill-rule="evenodd" clip-rule="evenodd" d="M11.6247 0.415345C11.3213 0.644777 11.0478 0.832494 11.017 0.832494C10.9862 0.832494 10.8681 0.918565 10.7547 1.02369C10.5374 1.22517 10.4418 1.29768 9.8386 1.71838L9.46403 1.97965L7.4011 1.9581L5.33818 1.93655L5.29302 2.27096C5.26822 2.45492 5.18631 2.96517 5.1111 3.40491C5.03588 3.84466 4.94926 4.40106 4.91872 4.64134C4.83585 5.29181 4.77519 5.35126 3.92008 5.62004C3.51121 5.74859 2.91537 5.93999 2.59599 6.04539C2.27662 6.15072 1.83694 6.29019 1.61894 6.3552C0.99932 6.53999 0.996518 6.57218 1.43866 8.4107C1.51681 8.73572 1.6089 9.14245 1.64333 9.31452C1.67769 9.48659 1.74963 9.82789 1.80312 10.073C1.91065 10.5653 1.92158 10.5272 1.48491 11.1861C1.34349 11.3995 1.08219 11.8036 0.904224 12.0842C0.726262 12.3648 0.449994 12.7794 0.290341 13.0056C0.130688 13.2318 0 13.4748 0 13.5457C0 13.6164 0.163069 13.8276 0.362413 14.0147C1.02685 14.6387 1.7415 15.2756 2.10856 15.5709C2.30831 15.7316 2.51162 15.9618 2.5604 16.0824C2.62216 16.2352 2.6641 16.9489 2.69853 18.4322L2.74799 20.5627L3.23556 20.6051C3.50377 20.6284 4.15358 20.6789 4.67961 20.7173C6.24664 20.8314 6.26098 20.8347 6.49127 21.1235C7.14485 21.9434 7.93137 22.9659 8.19787 23.342C8.54067 23.8258 8.71003 23.9095 9.03528 23.7559C9.54498 23.5152 9.88751 23.371 10.1449 23.2888C10.2952 23.2408 10.495 23.1616 10.5889 23.1128C11.0334 22.8817 11.8728 22.5767 12.0481 22.5827C12.1555 22.5864 12.4322 22.6948 12.6629 22.8237C12.8937 22.9526 13.3591 23.1851 13.6973 23.3405C14.0354 23.4958 14.5187 23.7208 14.7712 23.8403C15.3199 24.0999 15.3364 24.0935 15.7991 23.4376C17.1328 21.5471 17.084 21.5931 17.8734 21.4841C18.2066 21.4382 18.712 21.3406 18.9964 21.2672C19.2808 21.1938 19.6232 21.1337 19.7574 21.1337C19.8916 21.1337 20.3002 21.0712 20.6655 20.9947C21.0307 20.9182 21.3338 20.8556 21.339 20.8556C21.3443 20.8556 21.3377 20.0884 21.3245 19.1507C21.3112 18.2131 21.3185 17.3724 21.3407 17.2825C21.3628 17.1928 21.6186 16.8884 21.909 16.6062C23.301 15.2538 23.927 14.6231 23.9851 14.5147C24.0322 14.4267 23.9714 14.2475 23.7492 13.8194C23.5846 13.5022 23.271 12.8985 23.0525 12.4779C22.8339 12.0573 22.6012 11.6036 22.5354 11.4698C22.4097 11.2142 22.4068 11.2654 22.6136 10.0751C22.6506 9.86251 22.6808 9.6002 22.6808 9.49222C22.6808 9.38425 22.7092 9.18277 22.7441 9.04448C22.8916 8.45922 23.0223 7.78692 23.0223 7.61359C23.0223 7.41899 22.8231 7.30859 20.3562 6.13626L19.7737 5.85941L19.6531 5.27527C19.5415 4.73471 19.4935 4.48804 19.3267 3.5961C19.2013 2.92547 19.109 2.53272 19.0488 2.41418C18.9922 2.30294 18.8315 2.29251 17.1745 2.29251C15.9276 2.29251 15.3155 2.26728 15.2128 2.21166C15.028 2.11147 14.3834 1.62563 14.1076 1.37854C13.5738 0.900489 12.3873 0.00160286 12.2878 3.78497e-06C12.2266 -0.000969562 11.9282 0.185913 11.6247 0.415345ZM15.7849 9.49591C16.4763 10.0781 16.5262 10.1668 16.3226 10.4526C16.1045 10.7589 15.4677 11.5525 15.0636 12.0215C14.8757 12.2396 14.5068 12.6791 14.2438 12.9981C13.9808 13.3171 13.6408 13.7216 13.4882 13.897C13.3355 14.0725 13.1357 14.3136 13.0441 14.4329C12.6477 14.9488 10.8488 17.0318 10.7997 17.0318C10.7172 17.0318 9.45357 16.0319 8.42597 15.1534C8.34474 15.084 8.09881 14.8798 7.87945 14.6996C7.30074 14.2242 6.83155 13.7797 6.83155 13.7067C6.83155 13.6253 7.62278 12.5751 7.77041 12.4605C7.98943 12.2905 8.18707 12.3818 9.05031 13.0515C10.2768 14.003 10.3325 14.0422 10.4579 14.0422C10.5194 14.0422 10.8739 13.6917 11.2454 13.2634C11.6171 12.835 12.2293 12.139 12.6061 11.7165C13.2272 11.02 14.472 9.58448 14.7943 9.19285C15.0022 8.94034 15.1951 8.99936 15.7849 9.49591Z" fill="#027EDD"/>
</svg>
