<svg width="23" height="24" viewBox="0 0 23 24" fill="none" xmlns="http://www.w3.org/2000/svg">
<path fill-rule="evenodd" clip-rule="evenodd" d="M15.6146 4.44451e-08C14.536 -0.000120705 13.4704 0.245802 12.4925 0.720531C11.5147 1.19526 10.6482 1.88731 9.95386 2.74816C9.2595 3.60901 8.75406 4.61784 8.47298 5.70393C8.19189 6.79002 8.14196 7.92709 8.32668 9.03543C8.4001 9.48114 8.29162 9.85486 8.08452 10.0709L0.962078 17.4983C0.345952 18.1413 -0.000104427 19.0132 2.36381e-08 19.9223V23.1429C2.36381e-08 23.616 0.368175 24 0.82182 24H4.93092C5.14888 24 5.35791 23.9097 5.51204 23.749C5.66616 23.5882 5.75274 23.3702 5.75274 23.1429V21.4286H7.39638C7.61434 21.4286 7.82338 21.3383 7.9775 21.1775C8.13162 21.0168 8.2182 20.7988 8.2182 20.5714V18.8571H9.86184C10.0797 18.8569 10.2886 18.7665 10.4426 18.6057L13.3551 15.568C13.5633 15.352 13.9216 15.2389 14.3479 15.3166C15.357 15.4979 16.3912 15.4587 17.385 15.2015C18.3788 14.9443 19.3106 14.4746 20.1214 13.8223C20.9321 13.17 21.6042 12.3492 22.095 11.4119C22.5858 10.4746 22.8846 9.44124 22.9726 8.37722C23.0606 7.3132 22.9358 6.24171 22.6062 5.23061C22.2765 4.2195 21.7491 3.2908 21.0575 2.50332C20.3658 1.71583 19.5249 1.08672 18.5879 0.65581C17.651 0.2249 16.6385 0.00158352 15.6146 4.44451e-08ZM15.6146 3.42857C15.3966 3.42857 15.1876 3.51888 15.0335 3.67962C14.8793 3.84037 14.7928 4.05839 14.7928 4.28571C14.7928 4.51304 14.8793 4.73106 15.0335 4.89181C15.1876 5.05255 15.3966 5.14286 15.6146 5.14286C16.2685 5.14286 16.8956 5.41378 17.3579 5.89601C17.8203 6.37825 18.08 7.0323 18.08 7.71429C18.08 7.94161 18.1666 8.15963 18.3208 8.32038C18.4749 8.48112 18.6839 8.57143 18.9019 8.57143C19.1198 8.57143 19.3289 8.48112 19.483 8.32038C19.6371 8.15963 19.7237 7.94161 19.7237 7.71429C19.7237 6.57764 19.2908 5.48756 18.5202 4.68383C17.7496 3.8801 16.7044 3.42857 15.6146 3.42857Z" fill="#027EDD"/>
</svg>
