<svg width="18" height="22" viewBox="0 0 18 22" fill="none" xmlns="http://www.w3.org/2000/svg">
<path d="M8.72323 7.67941L6.90401 9.31166C7.14449 10.1348 7.4804 10.9269 7.90491 11.672C8.3477 12.4117 8.88125 13.093 9.49315 13.7002L11.8491 12.9743C13.169 12.5673 14.6099 12.9853 15.4876 14.0302L16.8294 15.6272C17.3727 16.2684 17.6451 17.0958 17.5888 17.9343C17.5326 18.7728 17.1521 19.5564 16.5281 20.1192C14.3393 22.1166 10.9692 22.7919 8.44605 20.8099C6.2275 19.0649 4.35102 16.9244 2.91139 14.4965C1.46811 12.0806 0.501798 9.4102 0.0648727 6.63012C-0.41908 3.50202 1.8709 0.998667 4.72622 0.14515C6.42885 -0.3652 8.24587 0.510315 8.87061 2.14256L9.60754 4.06737C10.0915 5.33444 9.74393 6.7643 8.72323 7.67941Z" fill="#027EDD"/>
</svg>
