<svg width="120" height="30" viewBox="0 0 120 30" fill="none" xmlns="http://www.w3.org/2000/svg">
<path fill-rule="evenodd" clip-rule="evenodd" d="M109.548 4.22265C107.072 4.74525 105.884 5.98976 105.499 8.46232C105.221 10.2466 105.398 18.7333 105.734 19.7319C106.474 21.9314 108.704 23.0187 112.469 23.0151C116.434 23.0115 118.609 21.9406 119.372 19.6152C119.669 18.7104 119.709 17.9816 119.706 13.4393C119.703 8.4887 119.687 8.24909 119.287 7.25197C118.779 5.98488 117.711 4.89451 116.574 4.48323C115.601 4.13086 110.822 3.95359 109.548 4.22265ZM40.6469 4.88837C39.9198 5.71671 39.0395 7.10542 38.4918 8.28921C37.1584 11.1712 36.6685 13.8388 36.5426 18.9055L36.4448 22.8358H38.9931H41.5412L41.5931 21.1643L41.6451 19.4928L43.5808 19.4417L45.5165 19.3904L45.5685 21.068L45.6206 22.7455H48.1504H50.6803L50.7367 21.2998C50.7676 20.5048 50.7076 18.5532 50.6033 16.963C50.2526 11.6179 49.0196 7.8772 46.6575 4.99137L46.0288 4.22338H43.6298H41.2308L40.6469 4.88837ZM53.4812 13.5296V22.8358H56.011H58.5409V18.5893V14.3428H60.4383H62.3356L62.3631 18.1827C62.3783 20.2948 62.4096 22.104 62.4327 22.2034C62.4558 22.3027 62.484 22.4858 62.4956 22.6099C62.5111 22.7789 63.1539 22.8358 65.0462 22.8358H67.576V13.5247V4.21344L65.001 4.26368L62.426 4.31373L62.3931 7.56639L62.3604 10.8191L60.4505 10.8704L58.5409 10.9217V7.57254V4.22338H56.011H53.4812V13.5296ZM76.3964 5.12455C73.9406 6.73678 72.2966 9.04743 71.571 11.9067C71.1601 13.5265 70.8287 16.264 70.8287 18.0401V19.2218H69.9252H69.0217V22.5648V25.9078H71.2805H73.5393V24.3718V22.8358H78.0568H82.5744V24.3718V25.9078H84.8332H87.092V22.5648V19.2218H86.1001H85.1082L85.0611 11.7677L85.0139 4.31373L81.397 4.26494L77.78 4.21616L76.3964 5.12455ZM88.7619 13.4844L88.8087 22.7455H91.2482H93.6877L93.7379 20.2156L93.7882 17.6858L96.2678 17.676C98.5847 17.667 98.8142 17.6341 99.7671 17.1751C101.069 16.5479 102.111 15.4147 102.634 14.0571C103.228 12.5151 103.23 9.30838 102.638 7.7715C102.112 6.40773 101.161 5.4592 99.8132 4.95486C98.112 4.31824 97.208 4.22338 92.8481 4.22338H88.7151L88.7619 13.4844ZM44.3287 8.93449C44.9805 10.6279 45.5302 13.4389 45.5302 15.078V16.3428L43.5877 16.2915L41.6451 16.2402L41.7004 14.9752C41.7308 14.2795 41.8347 13.2224 41.9312 12.6261C42.1921 11.0155 43.3656 7.4473 43.6081 7.52753C43.721 7.56512 44.0454 8.19813 44.3287 8.93449ZM113.924 7.90955C114.207 8.09527 114.378 8.41136 114.378 8.75027V13.5235C114.378 18.8125 114.376 18.8414 113.977 19.1211C113.354 19.5575 111.408 19.5044 110.942 19.0383C110.591 18.6876 110.58 18.48 110.626 13.3914L110.667 8.8201C110.671 8.38244 110.917 7.98294 111.306 7.78233C112.05 7.39906 113.232 7.45634 113.924 7.90955ZM79.8639 13.5296V19.2218H77.8761C76.4036 19.2218 75.8898 19.1632 75.8936 18.9959C75.8965 18.8717 75.9739 17.7467 76.0653 16.496C76.3656 12.3946 77.0734 10.306 78.7092 8.69579C79.1888 8.22379 79.6447 7.83745 79.7226 7.83745C79.8003 7.83745 79.8639 10.3989 79.8639 13.5296ZM97.0683 8.28975C97.7403 8.78523 97.9342 9.44082 97.9342 11.2164C97.9342 13.7414 97.4049 14.3428 95.1834 14.3428H93.778V11.071V7.79915L95.1785 7.86401C96.2208 7.91244 96.7042 8.02122 97.0683 8.28975Z" fill="white"/>
<g opacity="0.5">
<path d="M21.1806 18.038L23.2381 19.9943H18.7617L16.5893 17.8137L21.1806 18.038Z" fill="white"/>
<path d="M25.5194 18.2499L27.3539 19.9943H23.5367L21.4955 18.0534L25.5194 18.2499Z" fill="white"/>
<path d="M28.985 18.4192L30.6635 19.9943H27.6526L25.8343 18.2653L28.985 18.4192Z" fill="white"/>
<path d="M26.9973 16.5539L28.7533 18.2018L25.6059 18.0481L23.7311 16.2655L26.9973 16.5539Z" fill="white"/>
<path d="M23.4019 16.2364L25.2911 18.0327L21.2671 17.8361L19.1938 15.8647L23.4019 16.2364Z" fill="white"/>
<path d="M18.8644 15.8356L20.9522 17.8208L16.3735 17.5971L14.2089 15.4243L18.8644 15.8356Z" fill="white"/>
<path d="M25.0835 14.7581L26.7542 16.3259L23.4916 16.0377L21.7802 14.4104L25.0835 14.7581Z" fill="white"/>
<path d="M21.4444 14.375L23.1624 16.0086L18.9543 15.637L17.152 13.9232L21.4444 14.375Z" fill="white"/>
<path d="M16.8161 13.8879L18.6249 15.6079L13.9833 15.1979L12.1934 13.4013L16.8161 13.8879Z" fill="white"/>
<path d="M23.4264 13.203L24.8351 14.525L21.5356 14.1777L19.8777 12.6013L23.4264 13.203Z" fill="white"/>
<path d="M19.5141 12.5396L21.1997 14.1423L16.9073 13.6905L14.8684 11.7518L19.5141 12.5396Z" fill="white"/>
<path d="M14.5049 11.6901L16.5714 13.6552L11.9631 13.1701L9.67236 10.8707L14.5049 11.6901Z" fill="white"/>
</g>
<path d="M25.5197 18.25L27.3541 19.9944H23.5369L21.4957 18.0535L25.5197 18.25Z" fill="white"/>
<path d="M23.4021 16.2365L25.2913 18.0328L21.2673 17.8362L19.194 15.8648L23.4021 16.2365Z" fill="white"/>
<path d="M21.4446 14.3751L23.1626 16.0087L18.9545 15.6371L17.1522 13.9233L21.4446 14.3751Z" fill="white"/>
<path d="M19.5143 12.5397L21.1999 14.1424L16.9075 13.6906L14.8687 11.7519L19.5143 12.5397Z" fill="white"/>
<path d="M28.9848 18.419L30.6633 19.9942H27.6524L25.8341 18.2651L28.9848 18.419Z" fill="white"/>
<path d="M26.997 16.5538L28.7531 18.2017L25.6056 18.048L23.7309 16.2653L26.997 16.5538Z" fill="white"/>
<path d="M25.0833 14.758L26.754 16.3258L23.4914 16.0376L21.78 14.4102L25.0833 14.758Z" fill="white"/>
<path d="M23.4261 13.2029L24.8349 14.5249L21.5353 14.1776L19.8774 12.6011L23.4261 13.2029Z" fill="white"/>
<path d="M21.1806 18.038L23.2381 19.9943H18.7617L16.5893 17.8137L21.1806 18.038Z" fill="white"/>
<path d="M18.8644 15.8356L20.9522 17.8208L16.3735 17.5971L14.2089 15.4243L18.8644 15.8356Z" fill="white"/>
<path d="M16.8161 13.8879L18.6249 15.6079L13.9833 15.1979L12.1934 13.4013L16.8161 13.8879Z" fill="white"/>
<path d="M14.5049 11.6901L16.5714 13.6552L11.9631 13.1701L9.67236 10.8707L14.5049 11.6901Z" fill="white"/>
<path d="M2.33235 19.96H0L9.08931 10.8707L18.1786 19.96H15.8463L9.08931 13.203L2.33235 19.96Z" fill="white"/>
<path d="M2.12629 17.2847L5.89921 13.5118C5.86491 8.29831 10.8726 -2.43737 23.872 1.67855L23.1549 1.35353C12.951 -3.27082 1.47294 4.55277 2.04706 15.7409L2.12629 17.2847Z" fill="white"/>
<path d="M6.24231 16.6329L2.84668 20.0285C5.63276 26.2063 8.20493 27.5713 11.7672 29.0575C12.7453 29.4656 13.7569 29.8038 14.8117 29.9073C16.2255 30.046 18.2298 30.0742 20.305 29.6666C23.3782 29.0629 27.0277 27.037 28.4683 26.0995C28.1115 24.8647 25.3699 25.9051 24.0436 26.5797C23.5292 26.7512 22.363 27.1079 21.8142 27.1628C21.4939 27.1948 21.0879 27.1505 20.7395 27.083C20.3311 27.004 19.9223 26.91 19.5071 26.8851L18.6854 26.8358C18.6146 26.8315 18.5961 26.7357 18.6602 26.7053L19.0544 26.5186C19.0648 26.5136 19.0759 26.5114 19.0874 26.512C19.2649 26.5213 20.7836 26.5935 21.7456 26.3886C21.9031 26.3551 22.1009 26.3024 22.2632 26.2569C22.4671 26.1997 22.6667 26.1231 22.8335 25.9926C23.1646 25.7335 23.6155 25.212 22.9806 24.5958C22.7413 24.3635 22.3875 24.3144 22.0569 24.3579C20.8957 24.5107 20.0909 24.4579 18.7615 24.1787L15.263 23.0811C14.6342 22.841 13.0473 22.5529 11.7302 23.3212C10.4131 24.0895 9.37498 24.1444 9.02055 24.0758C9.67138 23.9845 10.0466 23.7126 10.3322 23.5053C10.4102 23.4487 10.411 23.3301 10.3342 23.272C8.26896 21.7091 6.62122 18.416 6.24231 16.6329Z" fill="white"/>
<path d="M24.7946 22.9875L22.9805 24.1444C23.4721 23.527 24.5994 22.2785 25.1756 22.2236C25.7519 22.1687 25.9645 22.4294 25.9988 22.5666C25.5702 22.6117 25.158 22.7558 24.7946 22.9875Z" fill="white"/>
<path d="M26.3115 23.7133L23.637 24.9067C24.3949 24.1072 26.1145 22.7109 26.93 22.6988C27.7454 22.6867 28.0157 23.0708 28.0489 23.2644C27.442 23.2793 26.8472 23.433 26.3115 23.7133Z" fill="white"/>
<path d="M26.9724 24.8949L24.1565 25.7C25.0194 25.0151 26.9185 23.8749 27.7275 23.9777C28.5365 24.0805 28.7501 24.4988 28.7557 24.6951C28.1527 24.6245 27.5422 24.6929 26.9724 24.8949Z" fill="white"/>
<path d="M22.1572 12.723L12.0389 11.1109L13.1022 10.8365L10.3926 9.53318L13.2394 9.91047L11.01 8.05831L13.6853 9.08729L12.0389 6.78923L14.2684 8.3327L13.2737 5.65736L15.1259 7.98971L14.8515 5.10857L16.052 7.78391L16.4979 4.93707L17.0123 7.78391L18.1785 5.07427L17.9041 7.95541L19.6191 5.89745L18.7273 8.367L20.9911 6.78923L19.3447 9.08729L21.9514 8.12691L19.9278 9.80757L22.6374 9.67037L19.9964 10.768L23.0147 11.351L19.9278 11.6597L22.1572 12.723Z" fill="white"/>
<g opacity="0.5">
<path d="M21.2035 18.0379L23.261 19.9943H18.7846L16.6122 17.8137L21.2035 18.0379Z" fill="white"/>
<path d="M25.5423 18.2499L27.3768 19.9943H23.5596L21.5184 18.0534L25.5423 18.2499Z" fill="white"/>
<path d="M29.0079 18.4191L30.6864 19.9943H27.6755L25.8572 18.2652L29.0079 18.4191Z" fill="white"/>
<path d="M27.0201 16.5539L28.7762 18.2018L25.6287 18.0481L23.754 16.2654L27.0201 16.5539Z" fill="white"/>
<path d="M23.4248 16.2364L25.3139 18.0327L21.29 17.8361L19.2167 15.8646L23.4248 16.2364Z" fill="white"/>
<path d="M18.8873 15.8356L20.9751 17.8208L16.3964 17.5971L14.2318 15.4243L18.8873 15.8356Z" fill="white"/>
<path d="M25.1064 14.7581L26.7771 16.3259L23.5145 16.0377L21.8031 14.4103L25.1064 14.7581Z" fill="white"/>
<path d="M21.4673 14.375L23.1853 16.0086L18.9772 15.6369L17.1749 13.9232L21.4673 14.375Z" fill="white"/>
<path d="M16.839 13.8879L18.6479 15.6079L14.0062 15.1979L12.2164 13.4013L16.839 13.8879Z" fill="white"/>
<path d="M23.4493 13.203L24.858 14.525L21.5585 14.1777L19.9006 12.6013L23.4493 13.203Z" fill="white"/>
<path d="M19.537 12.5396L21.2226 14.1423L16.9302 13.6905L14.8914 11.7518L19.537 12.5396Z" fill="white"/>
<path d="M14.5278 11.6901L16.5943 13.6552L11.9861 13.1701L9.69531 10.8707L14.5278 11.6901Z" fill="white"/>
</g>
<path d="M25.5421 18.25L27.3765 19.9944H23.5594L21.5181 18.0535L25.5421 18.25Z" fill="white"/>
<path d="M23.4246 16.2365L25.3137 18.0328L21.2897 17.8362L19.2164 15.8647L23.4246 16.2365Z" fill="white"/>
<path d="M21.467 14.3751L23.1851 16.0087L18.9769 15.637L17.1747 13.9233L21.467 14.3751Z" fill="white"/>
<path d="M19.5368 12.5397L21.2223 14.1424L16.93 13.6906L14.8911 11.7519L19.5368 12.5397Z" fill="white"/>
<path d="M29.0077 18.4192L30.6862 19.9944H27.6753L25.857 18.2653L29.0077 18.4192Z" fill="white"/>
<path d="M27.0199 16.554L28.776 18.2019L25.6285 18.0481L23.7538 16.2655L27.0199 16.554Z" fill="white"/>
<path d="M25.1062 14.7582L26.7769 16.326L23.5143 16.0378L21.8029 14.4104L25.1062 14.7582Z" fill="white"/>
<path d="M23.4491 13.2031L24.8578 14.5251L21.5583 14.1778L19.9004 12.6013L23.4491 13.2031Z" fill="white"/>
<path d="M21.2035 18.0379L23.261 19.9943H18.7846L16.6122 17.8137L21.2035 18.0379Z" fill="white"/>
<path d="M18.8873 15.8356L20.9751 17.8208L16.3964 17.5971L14.2318 15.4243L18.8873 15.8356Z" fill="white"/>
<path d="M16.839 13.8879L18.6479 15.6079L14.0062 15.1979L12.2164 13.4013L16.839 13.8879Z" fill="white"/>
<path d="M14.5278 11.6901L16.5943 13.6552L11.9861 13.1701L9.69531 10.8707L14.5278 11.6901Z" fill="white"/>
<path d="M2.3548 19.96H0.0224609L9.11173 10.8707L18.201 19.96H15.8687L9.11173 13.203L2.3548 19.96Z" fill="white"/>
<path d="M2.14923 17.2846L5.92214 13.5117C5.88784 8.29827 10.8955 -2.43736 23.8949 1.67854L23.1777 1.35352C12.9739 -3.27081 1.49589 4.55275 2.07001 15.7408L2.14923 17.2846Z" fill="white"/>
<path d="M6.26524 16.633L2.86963 20.0286C5.65569 26.2064 8.22785 27.5714 11.7901 29.0576C12.7682 29.4656 13.7798 29.8039 14.8346 29.9074C16.2484 30.0461 18.2527 30.0743 20.3279 29.6667C23.4011 29.063 27.0505 27.0371 28.4911 26.0996C28.1344 24.8648 25.3927 25.9052 24.0665 26.5797C23.552 26.7512 22.3858 27.108 21.8371 27.1628C21.5168 27.1949 21.1108 27.1506 20.7623 27.0831C20.354 27.0041 19.9452 26.9101 19.53 26.8852L18.7083 26.8359C18.6375 26.8316 18.6189 26.7358 18.6831 26.7054L19.0773 26.5186C19.0877 26.5137 19.0988 26.5115 19.1102 26.5121C19.2878 26.5214 20.8065 26.5936 21.7685 26.3887C21.926 26.3552 22.1238 26.3025 22.286 26.257C22.49 26.1998 22.6896 26.1232 22.8564 25.9927C23.1874 25.7335 23.6384 25.2121 23.0035 24.5959C22.7641 24.3636 22.4104 24.3145 22.0797 24.358C20.9185 24.5108 20.1137 24.458 18.7844 24.1788L15.2859 23.0812C14.6571 22.8411 13.0702 22.553 11.7531 23.3213C10.436 24.0896 9.3979 24.1445 9.04347 24.0759C9.69431 23.9846 10.0696 23.7127 10.3551 23.5054C10.4331 23.4488 10.4339 23.3302 10.3571 23.2721C8.29189 21.7092 6.64416 18.4161 6.26524 16.633Z" fill="white"/>
<path d="M24.8171 22.9875L23.0029 24.1444C23.4946 23.527 24.6218 22.2785 25.1981 22.2236C25.7743 22.1687 25.987 22.4294 26.0213 22.5666C25.5927 22.6117 25.1804 22.7558 24.8171 22.9875Z" fill="white"/>
<path d="M26.3339 23.7134L23.6594 24.9068C24.4173 24.1073 26.137 22.711 26.9524 22.6989C27.7678 22.6868 28.0382 23.0709 28.0714 23.2645C27.4644 23.2794 26.8696 23.4331 26.3339 23.7134Z" fill="white"/>
<path d="M26.9948 24.8951L24.179 25.7001C25.0419 25.0153 26.941 23.875 27.75 23.9778C28.559 24.0806 28.7725 24.4989 28.7782 24.6952C28.1751 24.6246 27.5646 24.693 26.9948 24.8951Z" fill="white"/>
<path d="M22.1801 12.723L12.0619 11.1109L13.1252 10.8365L10.4155 9.53316L13.2624 9.91045L11.0329 8.05829L13.7082 9.08727L12.0619 6.78923L14.2913 8.33269L13.2967 5.65735L15.1488 7.9897L14.8744 5.10857L16.0749 7.7839L16.5208 4.93707L17.0353 7.7839L18.2014 5.07427L17.927 7.9554L19.642 5.89745L18.7502 8.36699L21.014 6.78923L19.3676 9.08727L21.9743 8.12689L19.9507 9.80755L22.6603 9.67035L20.0193 10.7679L23.0376 11.351L19.9507 11.6597L22.1801 12.723Z" fill="white"/>
</svg>
